# xmcd
#
# Track frame offsets: 
#        150
#        15280
#        32496
#        54856
#        72725
#        86779
#        111592
#        129778
#        143089
#
# Disc length: 2290 seconds
#
# Revision: 0
# Processed by: cddbd v1.5.2PL0 Copyright (c) Steve Scherf et al.
# Submitted via: ExactAudioCopy v1.0b3
#
DISCID=7208f009
DTITLE=Viikate - XII - Kouvostomolli
DYEAR=2016
DGENRE=Kaiho Metal
TTITLE0=Elämä on katiska
TTITLE1=Mantelinmakuinen
TTITLE2=Rottinki
TTITLE3=Puolikulkijat
TTITLE4=Kovaa teetä
TTITLE5=Allikko
TTITLE6=Olen sees
TTITLE7=Pelastus
TTITLE8=Musta, metalli and taivas
EXTD=
EXTT0=
EXTT1=
EXTT2=
EXTT3=
EXTT4=
EXTT5=
EXTT6=
EXTT7=
EXTT8=
PLAYORDER=
